<?xml version="1.0" encoding="UTF-8" standalone="no"?>
<svg
   xmlns:dc="http://purl.org/dc/elements/1.1/"
   xmlns:cc="http://creativecommons.org/ns#"
   xmlns:rdf="http://www.w3.org/1999/02/22-rdf-syntax-ns#"
   xmlns:svg="http://www.w3.org/2000/svg"
   xmlns="http://www.w3.org/2000/svg"
   xmlns:sodipodi="http://sodipodi.sourceforge.net/DTD/sodipodi-0.dtd"
   xmlns:inkscape="http://www.inkscape.org/namespaces/inkscape"
   width="132.33333"
   height="211.33333"
   viewBox="0 0 396.99998 633.99998"
   version="1.1"
   id="svg11031"
   sodipodi:docname="minio_s3.svg"
   inkscape:version="0.92.2 5c3e80d, 2017-08-06">
  <metadata
     id="metadata11035">
    <rdf:RDF>
      <cc:Work
         rdf:about="">
        <dc:format>image/svg+xml</dc:format>
        <dc:type
           rdf:resource="http://purl.org/dc/dcmitype/StillImage" />
        <dc:title>Untitled 2</dc:title>
      </cc:Work>
    </rdf:RDF>
  </metadata>
  <sodipodi:namedview
     pagecolor="#ffffff"
     bordercolor="#666666"
     borderopacity="1"
     objecttolerance="10"
     gridtolerance="10"
     guidetolerance="10"
     inkscape:pageopacity="0"
     inkscape:pageshadow="2"
     inkscape:window-width="1551"
     inkscape:window-height="921"
     id="namedview11033"
     showgrid="false"
     inkscape:zoom="1"
     inkscape:cx="191"
     inkscape:cy="-111.16667"
     inkscape:window-x="0"
     inkscape:window-y="0"
     inkscape:window-maximized="0"
     inkscape:current-layer="layer2"
     scale-x="3" />
  <!-- Generator: Sketch 48.2 (47327) - http://www.bohemiancoding.com/sketch -->
  <title
     id="title11017">Untitled 2</title>
  <desc
     id="desc11019">Created with Sketch.</desc>
  <defs
     id="defs11021" />
  <g
     inkscape:groupmode="layer"
     id="layer2"
     inkscape:label="Layer 2"
     transform="translate(40,33)">
    <rect
       style="fill:#808080;fill-opacity:1;stroke:none;stroke-width:2;stroke-linecap:round;stroke-linejoin:round;stroke-miterlimit:4;stroke-dasharray:none;stroke-opacity:1"
       id="rect14758"
       width="397"
       height="634"
       x="-40"
       y="-33"
       ry="0" />
  </g>
  <g
     inkscape:groupmode="layer"
     id="layer1"
     inkscape:label="Layer 1"
     sodipodi:insensitive="true"
     transform="translate(40,33)">
    <g
       transform="translate(-0.971,0.377)"
       style="fill:none;fill-rule:evenodd;stroke:none;stroke-width:1"
       id="Page-1">
      <g
         style="fill-rule:nonzero"
         id="Minio_Logo_White">
        <g
           id="Group">
          <path
             style="fill:#f15a29"
             inkscape:connector-curvature="0"
             d="m 225.835,28.882 c 0,0 56.734,91.377 75.696,123.853 0.306,0.529 0.176,1.228 -0.28,1.684 -0.575,0.575 -1.441,0.637 -2.011,0.062 L 201.484,52.243 Z"
             id="Shape" />
          <path
             style="fill:#ffffff"
             inkscape:connector-curvature="0"
             d="m 58.706,361.854 c 16.593,-35.104 38.975,-66.865 66.674,-94.564 10.535,-10.53 21.656,-20.288 33.321,-29.253 v 72.348 z M 0.971,428.672 158.7,348.375 v 183.557 l 35.544,46.691 V 330.092 l 21.589,-11.105 c 9.945,-4.996 19.272,-11.644 27.569,-19.946 41.115,-41.11 41.768,-107.467 1.824,-149.292 L 163.742,64.855 c -3.249,-3.472 -4.954,-8.017 -4.804,-12.795 0.15,-4.809 2.161,-9.276 5.659,-12.572 7.214,-6.784 18.708,-6.327 25.491,0.881 l 11.396,11.878 24.351,-23.366 C 197.064,-8.431 161.861,-3.746 141.47,14.92 c -10.053,9.463 -15.826,22.278 -16.262,36.083 -0.435,13.826 4.545,26.978 14.013,37.037 l 0.109,0.119 81.909,85.324 c 26.937,28.668 26.398,73.752 -1.622,101.772 -4.369,4.368 -9.157,8.069 -14.23,11.105 l -11.142,5.731 V 176.126 c -34.078,17.562 -65.155,40.125 -92.553,67.529 -34.124,34.119 -60.916,73.861 -79.634,118.117 -9.183,21.707 -16.221,44.057 -21.087,66.9 z"
             id="path11024" />
          <polygon
             style="fill:#bcbec0"
             id="polygon11026"
             points="194.246,367.609 158.701,385.648 158.701,348.373 194.246,330.09 " />
        </g>
      </g>
    </g>
  </g>
</svg>
