<?xml version="1.0" encoding="UTF-8" standalone="no"?><svg xmlns="http://www.w3.org/2000/svg" xmlns:xlink="http://www.w3.org/1999/xlink" contentScriptType="application/ecmascript" contentStyleType="text/css" height="204px" preserveAspectRatio="none" style="width:226px;height:204px;" version="1.1" viewBox="0 0 226 204" width="226px" zoomAndPan="magnify"><defs/><g><ellipse cx="40.8198" cy="178.659" fill="#FEFECE" rx="34.8198" ry="14.659" style="stroke: #A80036; stroke-width: 1.5;"/><text fill="#000000" font-family="sans-serif" font-size="14" lengthAdjust="spacingAndGlyphs" textLength="45" x="18.3198" y="183.4031">Create</text><ellipse cx="95.1838" cy="47.659" fill="#FEFECE" rx="41.1838" ry="14.659" style="stroke: #A80036; stroke-width: 1.5;"/><text fill="#000000" font-family="sans-serif" font-size="14" lengthAdjust="spacingAndGlyphs" textLength="54" x="68.1838" y="52.4031">Manage</text><ellipse cx="149.1482" cy="178.659" fill="#FEFECE" rx="37.6482" ry="14.659" style="stroke: #A80036; stroke-width: 1.5;"/><text fill="#000000" font-family="sans-serif" font-size="14" lengthAdjust="spacingAndGlyphs" textLength="49" x="124.6482" y="183.4031">Display</text><!--entity admin--><ellipse cx="193" cy="18" fill="#FEFECE" rx="8" ry="8" style="stroke: #A80036; stroke-width: 2.0;"/><path d="M193,26 L193,53 M180,34 L206,34 M193,53 L180,68 M193,53 L206,68 " fill="none" style="stroke: #A80036; stroke-width: 2.0;"/><text fill="#000000" font-family="sans-serif" font-size="14" lengthAdjust="spacingAndGlyphs" textLength="43" x="171.5" y="84.5352">admin</text><!--link manage to create--><path d="M87.0828,66.7065 C76.1848,93.1443 56.8013,140.1671 47.0121,163.9151 " fill="none" id="manage-create" style="stroke: #A80036; stroke-width: 1.0; stroke-dasharray: 7.0,7.0;"/><polygon fill="#A80036" points="89.0147,62.0198,81.8866,68.8161,87.1092,66.6425,89.2828,71.865,89.0147,62.0198" style="stroke: #A80036; stroke-width: 1.0;"/><text fill="#000000" font-family="sans-serif" font-size="13" lengthAdjust="spacingAndGlyphs" textLength="35" x="66" y="130.5684">étend</text><!--link manage to show--><path d="M102.9172,66.7065 C113.8152,93.1443 133.1987,140.1671 142.9879,163.9151 " fill="none" id="manage-show" style="stroke: #A80036; stroke-width: 1.0; stroke-dasharray: 7.0,7.0;"/><polygon fill="#A80036" points="100.9853,62.0198,100.7172,71.865,102.8908,66.6425,108.1134,68.8161,100.9853,62.0198" style="stroke: #A80036; stroke-width: 1.0;"/><text fill="#000000" font-family="sans-serif" font-size="13" lengthAdjust="spacingAndGlyphs" textLength="35" x="130" y="130.5684">étend</text><!--link manage to admin--><path d="M136.3438,47.5 C147.9996,47.5 159.6554,47.5 171.3113,47.5 " fill="none" id="manage-admin" style="stroke: #A80036; stroke-width: 1.0;"/><!--
@startuml
skinparamlocked shadowing false
skinparam shadowing false
(create) as "Create"
(manage) as "Manage"
(show) as "Display"
(manage) <.. (create) : étend
(manage) <.. (show) : étend 
(manage) - admin
@enduml

PlantUML version 1.2018.03(Thu Apr 05 18:59:15 CEST 2018)
(GPL source distribution)
Java Runtime: Java(TM) SE Runtime Environment
JVM: Java HotSpot(TM) 64-Bit Server VM
Java Version: 1.8.0_92-b14
Operating System: Mac OS X
OS Version: 10.11.6
Default Encoding: UTF-8
Language: fr
Country: FR
--></g></svg>