<?xml version="1.0" encoding="UTF-8" standalone="no"?>
<!DOCTYPE svg PUBLIC "-//W3C//DTD SVG 1.1//EN"
 "http://www.w3.org/Graphics/SVG/1.1/DTD/svg11.dtd">
<!-- Generated by graphviz version 2.40.1 (20161225.0304)
 -->
<!-- Title: G Pages: 1 -->
<svg width="140pt" height="130pt"
 viewBox="0.00 0.00 140.16 130.00" xmlns="http://www.w3.org/2000/svg" xmlns:xlink="http://www.w3.org/1999/xlink">
<g id="graph0" class="graph" transform="scale(1 1) rotate(0) translate(4 126)">
<title>G</title>
<polygon fill="#ffffff" stroke="transparent" points="-4,4 -4,-126 136.1558,-126 136.1558,4 -4,4"/>
<!-- identifier -->
<g id="node1" class="node">
<title>identifier</title>
<polygon fill="#adff2f" stroke="#c0c0c0" points="65.4427,-116 9.8064,-116 9.8064,-92 65.4427,-92 77.4427,-104 65.4427,-116"/>
<text text-anchor="middle" x="43.6245" y="-99.8" font-family="Times,serif" font-size="14.00" fill="#000000">Identifier</text>
</g>
<!-- entity -->
<g id="node2" class="node">
<title>entity</title>
<path fill="#ffffe0" stroke="#c0c0c0" d="M58.6245,-36C58.6245,-36 28.6245,-36 28.6245,-36 22.6245,-36 16.6245,-30 16.6245,-24 16.6245,-24 16.6245,-12 16.6245,-12 16.6245,-6 22.6245,0 28.6245,0 28.6245,0 58.6245,0 58.6245,0 64.6245,0 70.6245,-6 70.6245,-12 70.6245,-12 70.6245,-24 70.6245,-24 70.6245,-30 64.6245,-36 58.6245,-36"/>
<text text-anchor="middle" x="43.6245" y="-13.8" font-family="Times,serif" font-size="14.00" fill="#000000">Entity</text>
</g>
<!-- identifier&#45;&gt;entity -->
<g id="edge2" class="edge">
<title>identifier&#45;&gt;entity</title>
<path fill="none" stroke="#ff1493" d="M15.8575,-85.7989C10.3242,-80.7472 5.2732,-74.7633 2.19,-68 -2.0539,-58.6908 1.9179,-49.6984 8.8139,-41.9681"/>
<polygon fill="#ff1493" stroke="#ff1493" points="11.6387,-44.113 16.4887,-34.6934 6.8232,-39.0326 11.6387,-44.113"/>
<text text-anchor="middle" x="29.8418" y="-56.8" font-family="Times,serif" font-size="14.00" fill="#000000">hadEntity</text>
</g>
<!-- entity&#45;&gt;identifier -->
<g id="edge1" class="edge">
<title>entity&#45;&gt;identifier</title>
<path fill="none" stroke="#ff1493" stroke-width="2" d="M54.9586,-36.251C59.447,-45.607 63.0319,-57.2643 60.6245,-68 59.9865,-70.8453 59.0971,-73.7304 58.0565,-76.5651"/>
<polygon fill="#ff1493" stroke="#ff1493" stroke-width="2" points="54.7887,-75.3053 54.0816,-85.8765 61.2267,-78.0536 54.7887,-75.3053"/>
<text text-anchor="middle" x="96.3902" y="-56.8" font-family="Times,serif" font-size="14.00" fill="#000000">hadIdentifier</text>
</g>
</g>
</svg>
